<svg xmlns="http://www.w3.org/2000/svg" width="122.59" height="13.47" viewBox="0 0 122.594 13.469"><defs><style>.cls-1{fill:#252537;fill-rule:evenodd}</style></defs><path id="Black_Friday_Sale" data-name="Black Friday Sale" class="cls-1" d="M211.391 106.064v9.8h4.161c1.55 0 3.714-.49 3.714-2.717a2.447 2.447 0 0 0-1.927-2.45 2.152 2.152 0 0 0 1.536-2.156c0-1.666-1.313-2.478-3.351-2.478h-4.133zm6.255 6.916c0 1.359-1.159 1.485-2.248 1.485h-2.415v-2.983h2.639c.878 0 2.024.196 2.024 1.498zm-.391-4.186a1.412 1.412 0 0 1-1.675 1.344l-2.6-.014v-2.674h2.373c1.176 0 1.902.364 1.902 1.344zm4.454-3.15v10.221h1.491v-10.221h-1.494zm10.08 8.667V111.9c0-2.03-1.2-2.94-3.1-2.94a8.189 8.189 0 0 0-2.569.448v1.372a5.961 5.961 0 0 1 2.416-.518 1.492 1.492 0 0 1 1.759 1.428v.238a8.882 8.882 0 0 0-1.745-.2c-1.4 0-2.988.532-2.988 2.255a2.107 2.107 0 0 0 2.346 2.058 3.884 3.884 0 0 0 2.527-.868 1.338 1.338 0 0 0 1.34.784 2.6 2.6 0 0 0 .949-.168v-1.078a1.573 1.573 0 0 1-.446.084.435.435 0 0 1-.489-.484zm-2.946-1.527a7.794 7.794 0 0 1 1.452.168v1.135a2.721 2.721 0 0 1-1.941.8 1.091 1.091 0 0 1-1.256-.994c.002-.843.893-1.109 1.745-1.109zm5.473-.224a3.387 3.387 0 0 0 3.616 3.487 5.031 5.031 0 0 0 2.22-.462V114.2a4.022 4.022 0 0 1-1.955.518 2.218 2.218 0 1 1 .028-4.425 3.274 3.274 0 0 1 1.857.56v-1.373a4.044 4.044 0 0 0-2.066-.518 3.48 3.48 0 0 0-3.7 3.598zm14.757 3.3l-2.694-3.389 2.429-3.332h-1.7l-1.927 2.66h-1.1v-5.74h-1.494v9.8h1.494v-2.787h1.075l2.206 2.787h1.717zm6.45-9.8v9.8h1.592v-3.977h4.747V110.4h-4.747v-2.87h5.152v-1.47h-6.744zm10.08 4.186v-1.106h-1.326v6.721h1.494v-4.071a2.4 2.4 0 0 1 2.653-1.316V109a2.985 2.985 0 0 0-2.824 1.25zm6.45 5.615v-6.721h-1.493v6.721h1.493zm.168-8.905a.843.843 0 0 0-.908-.882.89.89 0 1 0 0 1.778.839.839 0 0 0 .908-.892zm8.028-.9v3.948a3.1 3.1 0 0 0-2.415-1.05 3.55 3.55 0 0 0 0 7.085 3.117 3.117 0 0 0 2.566-1.239v1.064h1.34v-9.8h-1.494zm-.014 5.614v1.638a2.33 2.33 0 0 1-2.136 1.415 2.232 2.232 0 0 1 0-4.453 2.341 2.341 0 0 1 2.136 1.408zm10.066 2.633V111.9c0-2.03-1.2-2.94-3.1-2.94a8.183 8.183 0 0 0-2.569.448v1.372a5.951 5.951 0 0 1 2.415-.518 1.492 1.492 0 0 1 1.759 1.428v.238a8.873 8.873 0 0 0-1.745-.2c-1.4 0-2.988.532-2.988 2.255a2.107 2.107 0 0 0 2.346 2.058 3.884 3.884 0 0 0 2.527-.868 1.338 1.338 0 0 0 1.34.784 2.609 2.609 0 0 0 .95-.168v-1.078a1.58 1.58 0 0 1-.447.084.435.435 0 0 1-.489-.484zm-2.946-1.527a7.794 7.794 0 0 1 1.452.168v1.135a2.718 2.718 0 0 1-1.94.8 1.091 1.091 0 0 1-1.257-.994c0-.835.89-1.101 1.745-1.101zm8.545 1.429l-2.262-5.069h-1.592l3.184 6.777-.14.336c-.391 1.05-.935 1.568-1.661 1.568a2.316 2.316 0 0 1-.685-.1V119a3.8 3.8 0 0 0 .88.112c1.019 0 1.969-.588 2.695-2.338l3.141-7.631h-1.56zm9.284-5.657c0 3.472 5.585 2.548 5.585 4.816 0 .925-.935 1.219-2.192 1.219a6.123 6.123 0 0 1-3.351-.967v1.569a7.01 7.01 0 0 0 3.463.854c1.954.014 3.7-.7 3.7-2.759 0-3.5-5.585-2.646-5.585-4.76 0-.84.754-1.19 1.94-1.19a5.305 5.305 0 0 1 2.932.812v-1.526a6.368 6.368 0 0 0-3.057-.742c-1.843.008-3.435.876-3.435 2.682zm15.246 5.755V111.9c0-2.03-1.2-2.94-3.1-2.94a8.183 8.183 0 0 0-2.569.448v1.372a5.951 5.951 0 0 1 2.415-.518 1.492 1.492 0 0 1 1.759 1.428v.238a8.873 8.873 0 0 0-1.745-.2c-1.4 0-2.988.532-2.988 2.255a2.107 2.107 0 0 0 2.346 2.058 3.884 3.884 0 0 0 2.527-.868 1.338 1.338 0 0 0 1.34.784 2.605 2.605 0 0 0 .95-.168v-1.078a1.58 1.58 0 0 1-.447.084.435.435 0 0 1-.488-.484zm-2.946-1.527a7.794 7.794 0 0 1 1.452.168v1.135a2.718 2.718 0 0 1-1.94.8 1.092 1.092 0 0 1-1.257-.994c0-.835.894-1.101 1.745-1.101zm5.92-7.14v10.221h1.496v-10.213h-1.5zm3.951 6.86c0 2.367 1.745 3.543 3.8 3.543a5.734 5.734 0 0 0 2.4-.462V114.3a4.891 4.891 0 0 1-2.122.476c-1.229 0-2.4-.5-2.569-1.709h5.04c.433-1.946-.489-4.1-3.155-4.1a3.364 3.364 0 0 0-3.394 3.533zm5.208-.56h-3.714a1.83 1.83 0 0 1 1.968-1.736 1.585 1.585 0 0 1 1.746 1.744z" transform="translate(-211.406 -105.656)"/></svg>