<svg width="102" height="40" viewBox="0 0 102 40" xmlns="http://www.w3.org/2000/svg"><title>brut</title><path d="M15.982 13.088c5.336 0 9.308 4.403 9.308 13.327 0 8.805-5.049 13.279-10.935 13.279a8.693 8.693 0 0 1-6.46-2.871L4.403 39.79l-.813-.36c.24-.86.335-1.842.335-2.823V6.51c0-2.943-.885-4.307-3.733-4.307V1.173c1.03.096 2.058.144 3.039.144 1.914 0 3.685-.192 5.096-.694v17.705c1.46-3.35 4.307-5.24 7.656-5.24zm-2.01 25.481c4.355 0 6.556-3.828 6.556-12.154 0-7.943-1.914-11.867-5.981-11.867-2.608 0-5.216 2.081-6.22 6.1v15.48c1.578 1.628 3.612 2.441 5.646 2.441zM46.04 13.09c-3.422 0-6.077 3.42-7.106 6.268v-6.125c-1.412.478-3.182.67-5.096.67-.981 0-2.01-.048-3.039-.144v1.03c2.847 0 3.732 1.387 3.732 4.33v15.336c0 2.728-1.028 3.517-3.732 3.517V39c1.125-.048 3.541-.191 5.79-.191 3.039 0 6.03.143 7.537.191v-1.029c-3.23 0-5.192-.837-5.192-4.02V23.569c0-3.637 2.703-9.212 6.819-9.212.43 0 .79.144 1.028.479-.885.55-1.674 1.436-1.674 2.656 0 1.627 1.244 2.536 2.608 2.536 1.722 0 2.799-1.412 2.799-3.087 0-2.105-1.818-3.852-4.474-3.852zm30.606.143c-1.411.478-3.182.67-5.096.67-.98 0-2.01-.048-3.038-.144v1.03c2.847 0 3.732 1.387 3.732 4.33v10.12c0 5-2.8 8.877-6.627 8.877-3.517 0-3.709-2.584-3.709-5.623v-19.26c-1.435.478-3.182.67-5.096.67-.981 0-2.01-.048-3.039-.144v1.03c2.848 0 3.709 1.387 3.709 4.33v12.298c0 3.086.407 5.096 1.627 6.412 1.124 1.172 2.8 1.866 5.096 1.866 3.134 0 6.364-1.627 8.04-5.886v5.79c1.41-.502 3.181-.694 5.095-.694.981 0 2.01.048 3.039.144v-1.029c-2.847 0-3.733-1.364-3.733-4.307v-20.48zm15.917.574V5.624c-1.22.454-2.8.646-4.403.693v7.49h-4.713v.98h4.713V31.2c0 3.493.479 5.407 1.914 6.867 1.077 1.077 2.393 1.627 4.642 1.627 3.972 0 5.694-2.943 6.364-6.771l-.957-.24c-1.029 3.829-2.464 5.24-4.426 5.24-1.962 0-3.134-1.076-3.134-4.163V14.787h7.25v-.98h-7.25z" fill="#1A1A1E" fill-rule="evenodd"/></svg>