<svg xmlns="http://www.w3.org/2000/svg" width="166.06" height="13.47" viewBox="0 0 166.063 13.469"><defs><style>.cls-1{fill:#252537;fill-rule:evenodd}</style></defs><path id="Enhance_your_portfolio" data-name="Enhance your portfolio" class="cls-1" d="M211.391 106.064v9.8h6.814v-1.456h-5.222v-2.758h4.717v-1.456h-4.719v-2.674h5.138v-1.456h-6.73zm10.611 4v-.924h-1.326v6.721h1.494v-4.453a2.354 2.354 0 0 1 1.87-1.12 1.458 1.458 0 0 1 1.564 1.61v3.963h1.496v-4.159a2.612 2.612 0 0 0-2.764-2.744 3.057 3.057 0 0 0-2.336 1.11zm7.86-4v9.8h1.494v-4.453a2.355 2.355 0 0 1 1.871-1.12 1.458 1.458 0 0 1 1.564 1.61v3.963h1.494v-4.159a2.613 2.613 0 0 0-2.765-2.744 3.048 3.048 0 0 0-2.164.924v-3.822h-1.494zm14.9 8.247V111.9c0-2.03-1.2-2.94-3.1-2.94a8.183 8.183 0 0 0-2.569.448v1.372a5.951 5.951 0 0 1 2.415-.518 1.492 1.492 0 0 1 1.76 1.428v.238a8.892 8.892 0 0 0-1.746-.2c-1.4 0-2.988.532-2.988 2.255a2.107 2.107 0 0 0 2.346 2.058 3.884 3.884 0 0 0 2.527-.868 1.339 1.339 0 0 0 1.341.784 2.6 2.6 0 0 0 .949-.168v-1.078a1.58 1.58 0 0 1-.447.084.434.434 0 0 1-.49-.484zm-2.946-1.527a7.8 7.8 0 0 1 1.452.168v1.135a2.722 2.722 0 0 1-1.941.8 1.092 1.092 0 0 1-1.257-.994c-.002-.843.892-1.109 1.744-1.109zm7.217-2.716v-.924h-1.326v6.721h1.493v-4.453a2.355 2.355 0 0 1 1.871-1.12 1.459 1.459 0 0 1 1.564 1.61v3.963h1.494v-4.159a2.613 2.613 0 0 0-2.765-2.744 3.059 3.059 0 0 0-2.333 1.106zm7.442 2.492a3.387 3.387 0 0 0 3.616 3.487 5.031 5.031 0 0 0 2.22-.462V114.2a4.022 4.022 0 0 1-1.955.518 2.218 2.218 0 1 1 .028-4.425 3.272 3.272 0 0 1 1.857.56v-1.373a4.044 4.044 0 0 0-2.066-.518 3.48 3.48 0 0 0-3.702 3.598zm7.777-.056c0 2.367 1.745 3.543 3.8 3.543a5.739 5.739 0 0 0 2.4-.462V114.3a4.9 4.9 0 0 1-2.123.476c-1.228 0-2.4-.5-2.569-1.709h5.04c.433-1.946-.489-4.1-3.156-4.1a3.364 3.364 0 0 0-3.394 3.533zm5.207-.56h-3.714a1.831 1.831 0 0 1 1.969-1.736 1.583 1.583 0 0 1 1.743 1.736zm10.751 2.269l-2.262-5.069h-1.592l3.183 6.777-.139.336c-.391 1.05-.936 1.568-1.662 1.568a2.314 2.314 0 0 1-.684-.1V119a3.79 3.79 0 0 0 .88.112c1.019 0 1.968-.588 2.694-2.338l3.142-7.631h-1.57zm4.97-1.709a3.631 3.631 0 1 0 3.63-3.542 3.441 3.441 0 0 0-3.632 3.538zm5.738 0a2.116 2.116 0 1 1-2.108-2.17 2.026 2.026 0 0 1 2.106 2.166zm8.81-3.36v4.456a2.353 2.353 0 0 1-1.871 1.121 1.417 1.417 0 0 1-1.564-1.611v-3.962H294.8v4.152a2.57 2.57 0 0 0 2.765 2.745 3.055 3.055 0 0 0 2.331-1.106v.924h1.327v-6.721h-1.494zm5.668 1.106v-1.106h-1.326v6.721h1.494v-4.075a2.4 2.4 0 0 1 2.652-1.316V109a2.984 2.984 0 0 0-2.822 1.25zm10.234-.056v-1.05h-1.33v9.8h1.5V115a3.1 3.1 0 0 0 2.416 1.05 3.55 3.55 0 0 0 0-7.085 3.193 3.193 0 0 0-2.588 1.229zm4.384 2.31a2.067 2.067 0 0 1-2.081 2.227 2.346 2.346 0 0 1-2.136-1.415v-1.638a2.357 2.357 0 0 1 2.136-1.4 2.066 2.066 0 0 1 2.079 2.222zm3.532 0a3.631 3.631 0 1 0 3.63-3.542 3.441 3.441 0 0 0-3.632 3.538zm5.738 0a2.116 2.116 0 1 1-2.108-2.17 2.026 2.026 0 0 1 2.106 2.166zm5.278-2.254v-1.106h-1.327v6.721h1.494v-4.075a2.4 2.4 0 0 1 2.653-1.316V109a2.982 2.982 0 0 0-2.822 1.25zm5.417-3.136v2.03h-1.2v1.316h1.2v3.36a2.054 2.054 0 0 0 2.3 2.213 5.454 5.454 0 0 0 1.8-.294v-1.288a3.591 3.591 0 0 1-1.354.266 1.041 1.041 0 0 1-1.271-1.177v-3.08h2.43v-1.316h-2.43v-2.394zm8.376 8.751v-5.405h2.29v-1.316h-2.29v-.686a1.147 1.147 0 0 1 1.369-1.26 3.062 3.062 0 0 1 1.3.294v-1.316a4.959 4.959 0 0 0-1.661-.294 2.279 2.279 0 0 0-2.5 2.52v.742h-1.214v1.316h1.214v5.405h1.494zm3.784-3.361a3.631 3.631 0 1 0 3.63-3.542 3.441 3.441 0 0 0-3.632 3.538zm5.738 0a2.116 2.116 0 1 1-2.108-2.17 2.026 2.026 0 0 1 2.106 2.166zm3.979-6.86v10.221h1.494v-10.221h-1.494zm5.892 10.221v-6.721h-1.494v6.721h1.494zm.167-8.905a.842.842 0 0 0-.907-.882.89.89 0 1 0 0 1.778.838.838 0 0 0 .905-.896zm2.29 5.544a3.631 3.631 0 1 0 3.63-3.542 3.441 3.441 0 0 0-3.635 3.538zm5.738 0a2.116 2.116 0 1 1-2.108-2.17 2.026 2.026 0 0 1 2.106 2.166z" transform="translate(-211.406 -105.656)"/></svg>