<svg xmlns="http://www.w3.org/2000/svg" width="59.56" height="5.78" viewBox="0 0 59.562 5.782"><defs><style>.cls-1{fill:#252537;fill-rule:evenodd}</style></defs><path id="Learn_more" data-name="Learn more" class="cls-1" d="M234.43 160.9v5.6h3.854v-.848h-2.943V160.9h-.911zm5.448 0v5.6h3.9v-.832h-2.99v-1.575h2.7v-.831h-2.7v-1.527h2.942v-.835h-3.853zm6.1 5.6l.5-1.207h2.807l.495 1.207h.96l-2.359-5.6h-1l-2.367 5.6h.967zm1.791-4.4c.032-.088.064-.175.1-.311.04.136.072.223.1.311l.984 2.391h-2.175zm5.409 4.4v-2.095h1.135l1.679 2.095h1.1l-1.791-2.191a1.6 1.6 0 0 0 1.359-1.655c0-1.335-1.1-1.751-2.151-1.751h-2.238v5.6h.911zm0-4.765h1.367a.958.958 0 1 1 0 1.863h-1.367v-1.863zm6.408 4.765v-3.486c0-.2 0-.416-.008-.608l3.014 4.094h.856v-5.6h-.912v3.478c0 .208 0 .424.008.616l-3.014-4.094h-.856v5.6h.912zm13.79-5.6l-2.127 3.206-2.127-3.206h-.824v5.6h.912v-3.926l1.767 2.663h.544l1.767-2.655v3.918h.911v-5.6h-.823zm2.624 2.8a2.943 2.943 0 1 0 2.943-2.9 2.784 2.784 0 0 0-2.943 2.9zm4.958 0a2.015 2.015 0 1 1-2.015-2.047 1.918 1.918 0 0 1 2.012 2.047zm3.642 2.8v-2.095h1.135l1.679 2.095h1.1l-1.791-2.191a1.6 1.6 0 0 0 1.359-1.655c0-1.335-1.1-1.751-2.151-1.751h-2.239v5.6h.908zm0-4.765h1.367a.958.958 0 1 1 0 1.863H284.6v-1.863zm5.5-.832v5.6h3.9v-.832h-2.99v-1.575h2.7v-.831h-2.7v-1.527h2.942v-.838h-3.854z" transform="translate(-234.438 -160.812)"/></svg>