<svg width="88" height="6" viewBox="0 0 88 6" xmlns="http://www.w3.org/2000/svg"><title>learn_more_and_arrow</title><g fill="none" fill-rule="evenodd"><path d="M.992.088v5.6h3.854V4.84H1.903V.088H.992zm5.448 0v5.6h3.9v-.832H7.35V3.281h2.7V2.45h-2.7V.923h2.942V.088H6.439h.001zm6.1 5.6l.5-1.207h2.807l.495 1.207h.96l-2.359-5.6h-1l-2.367 5.6h.967-.003zm1.791-4.4c.032-.088.064-.175.1-.311.04.136.072.223.1.311l.984 2.391H13.34l.991-2.391zm5.409 4.4V3.593h1.135l1.679 2.095h1.1l-1.791-2.191a1.6 1.6 0 0 0 1.359-1.655c0-1.335-1.1-1.751-2.151-1.751h-2.238v5.6h.911l-.004-.003zm0-4.765h1.367a.958.958 0 1 1 0 1.863H19.74V.923zm6.408 4.765V2.202c0-.2 0-.416-.008-.608l3.014 4.094h.856v-5.6h-.912v3.478c0 .208 0 .424.008.616L26.092.088h-.856v5.6h.912zm13.79-5.6l-2.127 3.206L35.684.088h-.824v5.6h.912V1.762l1.767 2.663h.544L39.85 1.77v3.918h.911v-5.6h-.823zm2.624 2.8a2.943 2.943 0 1 0 2.943-2.9 2.784 2.784 0 0 0-2.943 2.9zm4.958 0A2.015 2.015 0 1 1 45.505.841a1.918 1.918 0 0 1 2.012 2.047h.003zm3.642 2.8V3.593h1.135l1.679 2.095h1.1l-1.791-2.191a1.6 1.6 0 0 0 1.359-1.655c0-1.335-1.1-1.751-2.151-1.751h-2.239v5.6h.908v-.003zm0-4.765h1.367a.958.958 0 1 1 0 1.863h-1.367V.923zm5.5-.832v5.6h3.9v-.832h-2.99V3.284h2.7v-.831h-2.7V.926h2.942V.088H56.66l.002.003z" fill="#252537"/><path d="M72.995 2.867l10.096.007L83.102 1l4.903 2.498-4.914 2.501V4.124l-10.096.007z" fill-rule="nonzero" fill="#18191C"/></g></svg>