<svg xmlns="http://www.w3.org/2000/svg" viewBox="0 0 121 20"><path fill="#FFF" d="M6.706 10.305a8.788 8.788 0 0 0-1.296-.378c-.51-.12-.88-.255-1.112-.405a.734.734 0 0 1-.346-.657c0-.336.132-.602.396-.797.264-.194.627-.292 1.089-.292.354 0 .687.058.999.175.312.117.615.299.909.545l.333-.684a2.702 2.702 0 0 0-.986-.585 3.79 3.79 0 0 0-1.264-.207c-.474 0-.893.08-1.256.238a1.943 1.943 0 0 0-.841.666 1.684 1.684 0 0 0-.297.986c0 .372.093.676.279.913.186.238.44.427.765.568.324.14.74.265 1.25.373.535.12.925.25 1.171.391a.68.68 0 0 1 .369.626c0 .33-.132.585-.396.765-.264.18-.636.27-1.116.27-.42 0-.798-.057-1.134-.171a3.165 3.165 0 0 1-.972-.549l-.333.684c.3.264.655.462 1.066.594.411.132.866.198 1.364.198.498 0 .931-.077 1.3-.23.37-.152.653-.367.85-.643.199-.276.298-.6.298-.972 0-.36-.1-.654-.297-.882a2.02 2.02 0 0 0-.792-.54zm4.239-1.449c-.42 0-.795.099-1.125.297-.33.198-.587.477-.77.837-.183.36-.274.771-.274 1.233 0 .726.207 1.298.62 1.714.415.418.985.626 1.71.626.319 0 .635-.053.95-.158a2.22 2.22 0 0 0 .779-.427l-.28-.648a2.252 2.252 0 0 1-1.43.513c-.936 0-1.42-.531-1.45-1.593h3.24v-.153c0-.702-.175-1.251-.526-1.647-.35-.396-.832-.594-1.444-.594zM9.712 10.71c.06-.378.198-.669.414-.873.216-.204.495-.306.837-.306.336 0 .603.1.8.301.199.202.316.494.352.878H9.712zm6.327-1.854c-.42 0-.795.099-1.125.297-.33.198-.587.477-.77.837-.183.36-.274.771-.274 1.233 0 .726.207 1.298.62 1.714.415.418.985.626 1.71.626.319 0 .635-.053.95-.158a2.22 2.22 0 0 0 .779-.427l-.28-.648a2.252 2.252 0 0 1-1.43.513c-.936 0-1.42-.531-1.45-1.593h3.24v-.153c0-.702-.175-1.251-.526-1.647-.35-.396-.832-.594-1.444-.594zm-1.233 1.854c.06-.378.198-.669.414-.873.216-.204.495-.306.837-.306.336 0 .603.1.8.301.199.202.316.494.352.878h-2.403zM24.93 9.144a2.299 2.299 0 0 0-1.161-.288c-.444 0-.834.096-1.17.288a1.95 1.95 0 0 0-.779.823c-.183.357-.274.773-.274 1.247 0 .474.091.888.274 1.242.183.354.443.627.779.819.336.192.726.288 1.17.288.438 0 .825-.096 1.16-.288.337-.192.596-.465.78-.819.182-.354.274-.768.274-1.242s-.092-.89-.275-1.247a1.95 1.95 0 0 0-.778-.823zm-.207 3.285c-.222.276-.543.414-.963.414-.414 0-.734-.138-.959-.414-.225-.276-.337-.68-.337-1.215 0-.522.114-.924.342-1.206.228-.282.549-.423.963-.423.408 0 .724.141.95.423.224.282.337.684.337 1.206 0 .534-.111.94-.333 1.215zm4.914-3.573c-.348 0-.659.076-.932.23a1.515 1.515 0 0 0-.625.661L28 8.964h-.846c.048.378.072.804.072 1.278V13.5h.9v-2.583c0-.402.115-.723.346-.963.231-.24.539-.36.923-.36.336 0 .58.09.733.27.153.18.23.468.23.864V13.5h.909v-2.826c0-1.212-.543-1.818-1.63-1.818zm2.978.207v1.08h1.08v-1.08h-1.08zm0 4.437h1.08v-1.08h-1.08v1.08z"/><circle fill="#FFF" cx="46.78" cy="10" r="6.5"/><path fill="#DA552F" d="M47.651 6.75H44.51v6.5h1.3V11.3h1.842a2.275 2.275 0 1 0 0-4.55zm0 3.25H45.81V8.05h1.842a.975.975 0 0 1 0 1.95z"/><g fill="#FFF"><path d="M57.239 12.87V6.507h2.923c1.359 0 2.099.919 2.099 2.015 0 1.087-.75 2.005-2.1 2.005H58.57v2.343h-1.33zm3.664-4.348c0-.525-.404-.843-.928-.843h-1.406v1.677h1.406c.524 0 .928-.318.928-.834zM63.07 12.87V8.231h1.19v.61c.328-.394.88-.722 1.443-.722v1.162a1.53 1.53 0 0 0-.328-.028c-.394 0-.918.225-1.115.516v3.101h-1.19zM66.154 10.49c0-1.284.9-2.37 2.39-2.37 1.5 0 2.399 1.086 2.399 2.37s-.9 2.38-2.4 2.38c-1.49 0-2.389-1.096-2.389-2.38zm3.552 0c0-.703-.413-1.312-1.162-1.312-.741 0-1.153.61-1.153 1.312 0 .712.412 1.321 1.153 1.321.75 0 1.162-.609 1.162-1.321zM74.947 12.87v-.693c-.356.45-.843.693-1.396.693-1.134 0-2.006-.862-2.006-2.38 0-1.471.853-2.37 2.006-2.37.534 0 1.04.224 1.396.692V6.507h1.2v6.363h-1.2zm0-1.574V9.693c-.197-.3-.628-.515-1.022-.515-.683 0-1.152.534-1.152 1.312 0 .787.469 1.321 1.152 1.321.394 0 .825-.216 1.022-.515zM80.385 12.87v-.684a2.151 2.151 0 0 1-1.593.684c-.993 0-1.462-.544-1.462-1.424V8.23h1.19v2.746c0 .628.328.834.834.834.46 0 .825-.253 1.03-.515V8.23h1.191v4.64h-1.19zM82.468 10.49c0-1.387 1.012-2.37 2.4-2.37.927 0 1.49.402 1.79.815l-.779.73c-.215-.318-.543-.487-.955-.487-.722 0-1.228.525-1.228 1.312s.506 1.321 1.228 1.321c.412 0 .74-.187.955-.497l.778.731c-.3.413-.862.825-1.79.825-1.387 0-2.399-.984-2.399-2.38zM87.68 11.624V9.272h-.749v-1.04h.75V6.994h1.19V8.23h.918v1.04h-.918v2.034c0 .29.15.506.412.506.177 0 .347-.066.412-.14l.253.908c-.178.16-.497.291-.993.291-.834 0-1.275-.431-1.275-1.246zM97.411 12.87v-2.746H94.46v2.746h-1.33V6.507h1.33v2.455h2.952V6.507h1.34v6.363h-1.34zM103.01 12.87v-.684a2.151 2.151 0 0 1-1.593.684c-.994 0-1.462-.544-1.462-1.424V8.23h1.19v2.746c0 .628.328.834.833.834.46 0 .825-.253 1.031-.515V8.23h1.19v4.64h-1.19zM108.437 12.87v-2.849c0-.628-.327-.843-.834-.843-.468 0-.824.262-1.03.525v3.167h-1.19V8.231h1.19v.581c.29-.337.852-.693 1.583-.693 1.003 0 1.48.562 1.48 1.443v3.308h-1.199zM111.055 11.624V9.272h-.75v-1.04h.75V6.994h1.19V8.23h.918v1.04h-.918v2.034c0 .29.15.506.412.506.178 0 .347-.066.413-.14l.253.908c-.178.16-.497.291-.994.291-.834 0-1.274-.431-1.274-1.246z"/></g></svg>