<svg xmlns="http://www.w3.org/2000/svg" width="149.53" height="17.88" viewBox="0 0 149.528 17.875"><defs><style>.cls-1{fill:#2673e7;fill-rule:evenodd}</style></defs><path id="WebGradients_copy_2" data-name="WebGradients copy 2" class="cls-1" d="M896.641 183.847l3.5 10.153h2.359l5.929-16.009h-3.312l-3.841 10.9-3.7-11.04h-1.728l-3.913 11.04-3.576-10.9h-3.312L890.616 194h2.353zm19.992 6.817a2.679 2.679 0 0 1-2.424 1.368 2.477 2.477 0 0 1-2.089-.984 3.066 3.066 0 0 1-.5-1.752h7.777v-.24a6.214 6.214 0 0 0-1.248-4.081 4.967 4.967 0 0 0-4.056-1.7 5.325 5.325 0 0 0-3.913 1.464 5.536 5.536 0 0 0-1.584 4.081 5.238 5.238 0 0 0 1.632 4.056 5.442 5.442 0 0 0 3.985 1.464 5.134 5.134 0 0 0 5.112-3.24zm-4.921-3.241a2.494 2.494 0 0 1 4.921 0h-4.921zm12.864-10.923h-2.928V194h2.928v-1.344a3.928 3.928 0 0 0 3.312 1.68c3.073 0 5.185-2.376 5.185-5.545 0-3.144-2.04-5.52-5.113-5.52a4.031 4.031 0 0 0-3.384 1.68V176.5zm2.592 9.361a2.941 2.941 0 1 1-2.88 2.928 2.827 2.827 0 0 1 2.88-2.926zm16.705 2.256H948a4.272 4.272 0 0 1-1.512 2.449 5.337 5.337 0 0 1-3.145.96 4.925 4.925 0 0 1-3.552-1.368 5.445 5.445 0 0 1-1.584-4.057 5.966 5.966 0 0 1 1.608-4.224 5.411 5.411 0 0 1 3.7-1.416 5.252 5.252 0 0 1 2.257.5 4.365 4.365 0 0 1 1.872 1.9l2.712-1.464a7.536 7.536 0 0 0-3-2.928 7.755 7.755 0 0 0-3.7-.841 8.54 8.54 0 0 0-6.312 2.449 8.177 8.177 0 0 0-2.352 5.952 8.587 8.587 0 0 0 2.376 6.169 8.8 8.8 0 0 0 11.5.048c2.208-2.184 2.352-5.545 2.352-6.625v-.192h-7.344v2.688zm9.791 5.883h2.928v-4.993a3.57 3.57 0 0 1 .576-2.3 2.393 2.393 0 0 1 1.944-.84 2.2 2.2 0 0 1 1.368.384l.384-2.736a3.6 3.6 0 0 0-1.248-.24 3.184 3.184 0 0 0-1.728.456 3.5 3.5 0 0 0-1.3 1.44v-1.56h-2.928V194zm16.368-9.049a3.764 3.764 0 0 0-3.336-1.68 5.2 5.2 0 0 0-5.161 5.52 5.274 5.274 0 0 0 5.305 5.545 3.727 3.727 0 0 0 3.192-1.68V194h2.928v-10.393h-2.928v1.344zm-2.592.912a2.941 2.941 0 1 1-2.88 2.928 2.826 2.826 0 0 1 2.88-2.928zm16.272-.912a3.764 3.764 0 0 0-3.336-1.68 5.2 5.2 0 0 0-5.161 5.52 5.274 5.274 0 0 0 5.3 5.545 3.727 3.727 0 0 0 3.192-1.68V194h2.928v-17.5h-2.928v8.449zm-2.592.912a2.941 2.941 0 1 1-2.881 2.928 2.826 2.826 0 0 1 2.881-2.928zm8.3-2.256V194h2.928v-10.393h-2.928zm-.288-4.392a1.752 1.752 0 1 0 1.752-1.753 1.762 1.762 0 0 0-1.749 1.753zm13.515 11.449a2.682 2.682 0 0 1-2.43 1.368 2.472 2.472 0 0 1-2.085-.984 3.066 3.066 0 0 1-.5-1.752h7.779v-.24a6.239 6.239 0 0 0-1.25-4.081 4.964 4.964 0 0 0-4.06-1.7 5.322 5.322 0 0 0-3.909 1.464 5.536 5.536 0 0 0-1.584 4.081 5.238 5.238 0 0 0 1.632 4.056 5.437 5.437 0 0 0 3.981 1.464 5.149 5.149 0 0 0 5.12-3.24zm-4.923-3.241a2.495 2.495 0 0 1 4.923 0h-4.923zm9.936 6.577h2.93v-5.3a3.517 3.517 0 0 1 .46-2.016 1.992 1.992 0 0 1 1.8-.912 1.9 1.9 0 0 1 1.37.528 3.018 3.018 0 0 1 .55 2.04V194h2.93v-6.529a4.381 4.381 0 0 0-.82-2.928 3.977 3.977 0 0 0-3.07-1.272 3.821 3.821 0 0 0-3.22 1.68v-1.344h-2.93V194zm17.76-7.9v-2.5h-2.01v-3.552h-2.93v3.552h-1.15v2.5h1.15v7.9h2.93v-7.9h2.01zm8.64-1.728a5.175 5.175 0 0 0-3.31-1.1 4.273 4.273 0 0 0-2.71.744 3.087 3.087 0 0 0-1.08 2.352 2.787 2.787 0 0 0 .79 1.992 5.614 5.614 0 0 0 2.23 1.249l.67.24a1.159 1.159 0 0 1 .92 1.056 1.241 1.241 0 0 1-1.44 1.128 3.23 3.23 0 0 1-2.31-1.2l-1.53 1.776a5.232 5.232 0 0 0 4.03 1.728 4.367 4.367 0 0 0 3.12-1.1 3.452 3.452 0 0 0 1.15-2.64 3.034 3.034 0 0 0-.53-1.729 5.307 5.307 0 0 0-2.64-1.488l-.69-.216a1.036 1.036 0 0 1-.94-.936.948.948 0 0 1 1.13-.84 2.417 2.417 0 0 1 1.7.7z" transform="translate(-885.062 -176.5)"/></svg>