<svg width="74" height="14" viewBox="0 0 74 14" xmlns="http://www.w3.org/2000/svg"><title>but_producthunt</title><g fill-rule="nonzero" fill="none"><circle fill="#FFF" cx="6.78" cy="7" r="6.5"/><path d="M7.651 3.75H4.51v6.5h1.3V8.3h1.842a2.275 2.275 0 1 0 0-4.55zm0 3.25H5.81V5.05h1.842a.975.975 0 0 1 0 1.95z" fill="#DA552F"/><g fill="#FFF"><path d="M17.239 9.87V3.507h2.923c1.359 0 2.099.919 2.099 2.015 0 1.087-.75 2.005-2.1 2.005H18.57V9.87h-1.33zm3.664-4.348c0-.525-.404-.843-.928-.843h-1.406v1.677h1.406c.524 0 .928-.318.928-.834zM23.07 9.87V5.231h1.19v.61c.328-.394.88-.722 1.443-.722v1.162a1.53 1.53 0 0 0-.328-.028c-.394 0-.918.225-1.115.516V9.87h-1.19zM26.154 7.49c0-1.284.9-2.37 2.39-2.37 1.5 0 2.399 1.086 2.399 2.37s-.9 2.38-2.4 2.38c-1.49 0-2.389-1.096-2.389-2.38zm3.552 0c0-.703-.413-1.312-1.162-1.312-.741 0-1.153.61-1.153 1.312 0 .712.412 1.321 1.153 1.321.75 0 1.162-.609 1.162-1.321zM34.947 9.87v-.693c-.356.45-.843.693-1.396.693-1.134 0-2.006-.862-2.006-2.38 0-1.471.853-2.37 2.006-2.37.534 0 1.04.224 1.396.692V3.507h1.2V9.87h-1.2zm0-1.574V6.693c-.197-.3-.628-.515-1.022-.515-.683 0-1.152.534-1.152 1.312 0 .787.469 1.321 1.152 1.321.394 0 .825-.216 1.022-.515zM40.385 9.87v-.684a2.151 2.151 0 0 1-1.593.684c-.993 0-1.462-.544-1.462-1.424V5.23h1.19v2.746c0 .628.328.834.834.834.46 0 .825-.253 1.03-.515V5.23h1.191v4.64h-1.19zM42.468 7.49c0-1.387 1.012-2.37 2.4-2.37.927 0 1.49.402 1.79.815l-.779.73c-.215-.318-.543-.487-.955-.487-.722 0-1.228.525-1.228 1.312s.506 1.321 1.228 1.321c.412 0 .74-.187.955-.497l.778.731c-.3.413-.862.825-1.79.825-1.387 0-2.399-.984-2.399-2.38zM47.68 8.624V6.272h-.749v-1.04h.75V3.994h1.19V5.23h.918v1.04h-.918v2.034c0 .29.15.506.412.506.177 0 .347-.066.412-.14l.253.908c-.178.16-.497.291-.993.291-.834 0-1.275-.431-1.275-1.246zM57.411 9.87V7.124H54.46V9.87h-1.33V3.507h1.33v2.455h2.952V3.507h1.34V9.87h-1.34zM63.01 9.87v-.684a2.151 2.151 0 0 1-1.593.684c-.994 0-1.462-.544-1.462-1.424V5.23h1.19v2.746c0 .628.328.834.833.834.46 0 .825-.253 1.031-.515V5.23h1.19v4.64h-1.19zM68.437 9.87V7.021c0-.628-.327-.843-.834-.843-.468 0-.824.262-1.03.525V9.87h-1.19V5.231h1.19v.581c.29-.337.852-.693 1.583-.693 1.003 0 1.48.562 1.48 1.443V9.87h-1.199zM71.055 8.624V6.272h-.75v-1.04h.75V3.994h1.19V5.23h.918v1.04h-.918v2.034c0 .29.15.506.412.506.178 0 .347-.066.413-.14l.253.908c-.178.16-.497.291-.994.291-.834 0-1.274-.431-1.274-1.246z"/></g></g></svg>